<svg width="200" height="73" viewBox="0 0 200 73" fill="none" xmlns="http://www.w3.org/2000/svg">
<path d="M35.156 22.872H34.628C32.0173 22.872 29.9787 23.532 28.512 24.852C27.0747 26.1427 26.356 28.4453 26.356 31.76C26.356 32.8453 26.4587 33.608 26.664 34.048C26.8693 34.4587 26.972 34.6933 26.972 34.752C25.388 34.752 24.2 34.4293 23.408 33.784C22.6453 33.1093 22.264 32.0093 22.264 30.484C22.264 28.4013 22.7773 26.5093 23.804 24.808C24.8307 23.0773 26.4587 21.684 28.688 20.628C30.9467 19.572 33.8067 19.044 37.268 19.044C39.204 19.044 41.2867 19.22 43.516 19.572C45.3933 19.8947 47.0653 20.056 48.532 20.056C50.4093 20.056 52.1107 19.748 53.636 19.132C53.5773 21.0387 53.0933 22.4467 52.184 23.356C51.2747 24.2653 49.9253 24.72 48.136 24.72C47.1973 24.72 46.2587 24.6467 45.32 24.5C44.3813 24.3533 43.0467 24.104 41.316 23.752L35.244 52H28.908L35.156 22.872ZM46.1756 30H52.5116L51.9396 32.728C52.9369 31.848 53.8316 31.1733 54.6236 30.704C55.4449 30.2347 56.3249 30 57.2636 30C58.2023 30 58.9356 30.3227 59.4636 30.968C60.0209 31.6133 60.2996 32.3907 60.2996 33.3C60.2996 34.1507 60.0209 34.8987 59.4636 35.544C58.9063 36.1893 58.1289 36.512 57.1316 36.512C56.4863 36.512 56.0463 36.3653 55.8116 36.072C55.6063 35.7493 55.4449 35.2947 55.3276 34.708C55.2396 34.3267 55.1516 34.048 55.0636 33.872C54.9756 33.696 54.8143 33.608 54.5796 33.608C53.9636 33.608 53.4356 33.74 52.9956 34.004C52.5849 34.2387 52.0423 34.664 51.3676 35.28L47.8476 52H41.5116L46.1756 30ZM65.0066 52.264C63.3346 52.264 61.9412 51.692 60.8266 50.548C59.7119 49.404 59.1546 47.6147 59.1546 45.18C59.1546 43.0093 59.5799 40.736 60.4306 38.36C61.3106 35.9547 62.6012 33.9307 64.3026 32.288C66.0332 30.616 68.0866 29.78 70.4626 29.78C71.6652 29.78 72.5599 29.9853 73.1466 30.396C73.7332 30.8067 74.0266 31.3493 74.0266 32.024V32.332L74.5106 30H80.8466L77.6786 44.96C77.5612 45.4 77.5026 45.8693 77.5026 46.368C77.5026 47.6293 78.1039 48.26 79.3066 48.26C80.1279 48.26 80.8319 47.8787 81.4186 47.116C82.0346 46.3533 82.5186 45.356 82.8706 44.124H84.7186C83.6332 47.292 82.2839 49.448 80.6706 50.592C79.0866 51.7067 77.4879 52.264 75.8746 52.264C74.6426 52.264 73.6452 51.9267 72.8826 51.252C72.1492 50.548 71.7092 49.536 71.5626 48.216C70.7119 49.4187 69.7586 50.4013 68.7026 51.164C67.6759 51.8973 66.4439 52.264 65.0066 52.264ZM67.8666 47.996C68.5999 47.996 69.3186 47.6587 70.0226 46.984C70.7559 46.28 71.2546 45.3267 71.5186 44.124L73.6306 34.18C73.6306 33.7987 73.4839 33.432 73.1906 33.08C72.8972 32.6987 72.4426 32.508 71.8266 32.508C70.6532 32.508 69.5972 33.1973 68.6586 34.576C67.7199 35.9253 66.9866 37.568 66.4586 39.504C65.9306 41.4107 65.6666 43.0973 65.6666 44.564C65.6666 46.0307 65.8719 46.9693 66.2826 47.38C66.7226 47.7907 67.2506 47.996 67.8666 47.996ZM87.9027 52.264C86.2014 52.264 84.8667 51.8387 83.8987 50.988C82.9601 50.108 82.4907 48.8027 82.4907 47.072C82.4907 46.368 82.5641 45.664 82.7107 44.96L85.8787 30H92.2147L89.0467 44.96C88.9001 45.6933 88.8267 46.2213 88.8267 46.544C88.8267 47.512 89.3254 47.996 90.3227 47.996C91.6721 47.996 92.9187 47.1453 94.0627 45.444C95.2361 43.7427 96.1747 41.7187 96.8787 39.372C97.5827 37.0253 97.9347 35.0013 97.9347 33.3C97.8761 33.4467 97.6854 33.564 97.3627 33.652C97.0401 33.7107 96.7614 33.74 96.5267 33.74C96.0281 33.74 95.6321 33.5053 95.3387 33.036C95.0747 32.5667 94.9427 32.0533 94.9427 31.496C94.9427 30.792 95.1627 30.22 95.6027 29.78C96.0721 29.34 96.7614 29.12 97.6707 29.12C98.6387 29.12 99.3427 29.4867 99.7827 30.22C100.223 30.924 100.443 31.8333 100.443 32.948C100.443 35.588 99.9881 38.4187 99.0787 41.44C98.1694 44.432 96.7761 46.984 94.8987 49.096C93.0214 51.208 90.6894 52.264 87.9027 52.264ZM107.397 52.264C105.227 52.264 103.54 51.7067 102.337 50.592C101.135 49.448 100.533 47.6733 100.533 45.268C100.533 43.244 100.929 41.0147 101.721 38.58C102.513 36.1453 103.804 34.048 105.593 32.288C107.383 30.4987 109.656 29.604 112.413 29.604C115.64 29.604 117.253 31.012 117.253 33.828C117.253 35.4707 116.784 36.9813 115.845 38.36C114.907 39.7387 113.66 40.8533 112.105 41.704C110.551 42.5253 108.893 42.9947 107.133 43.112C107.075 43.992 107.045 44.5787 107.045 44.872C107.045 46.3093 107.295 47.292 107.793 47.82C108.292 48.3187 109.099 48.568 110.213 48.568C111.797 48.568 113.147 48.2013 114.261 47.468C115.405 46.7347 116.652 45.62 118.001 44.124H119.497C116.241 49.5507 112.208 52.264 107.397 52.264ZM107.485 41C108.571 40.9413 109.597 40.56 110.565 39.856C111.563 39.152 112.355 38.2573 112.941 37.172C113.557 36.0867 113.865 34.9427 113.865 33.74C113.865 32.5373 113.499 31.936 112.765 31.936C111.709 31.936 110.668 32.86 109.641 34.708C108.644 36.556 107.925 38.6533 107.485 41ZM122.26 52.264C120.852 52.264 119.708 51.824 118.828 50.944C117.978 50.0347 117.552 48.6853 117.552 46.896C117.552 46.1627 117.67 45.2093 117.904 44.036L122.612 21.992L129.124 21.112L124.064 44.872C123.947 45.312 123.888 45.7373 123.888 46.148C123.888 47.3213 124.49 47.908 125.692 47.908C126.22 47.908 126.69 47.82 127.1 47.644C126.983 49.1107 126.455 50.2547 125.516 51.076C124.607 51.868 123.522 52.264 122.26 52.264Z" fill="white"/>
<path d="M156 52C165.941 52 174 43.941 174 34C174 24.0589 165.941 16 156 16C146.059 16 138 24.0589 138 34C138 43.941 146.059 52 156 52Z" stroke="white" stroke-width="3" stroke-linecap="round" stroke-linejoin="round"/>
<path d="M138.9 34.9L148.8 38.5L147 44.8L148.8 50.2" stroke="white" stroke-width="3" stroke-linecap="round" stroke-linejoin="round"/>
<path d="M165 49.3L164.1 44.8L159.6 43V36.7L165 34.9L173.1 35.8" stroke="white" stroke-width="3" stroke-linecap="round" stroke-linejoin="round"/>
<path d="M168.6 22.3L167.7 25L161.4 25.9V31.3L165.9 29.5H169.5L173.1 31.3" stroke="white" stroke-width="3" stroke-linecap="round" stroke-linejoin="round"/>
<path d="M138.9 32.2L144.043 28.36L149.186 27.4L153.3 21.64L151.243 17.8" stroke="white" stroke-width="3" stroke-linecap="round" stroke-linejoin="round"/>
</svg>
